# xmcd CD database file generated by OrangeCD 6.4
#
# Track frame offsets:
#	150
#	9525
#	21846
#	33822
#	50938
#	61983
#	79208
#	96271
#	105125
#	121726
#	136482
#	155479
#	167149
#	182759
#
# Disc length: 2717 seconds
#
# Revision: 0
# Processed by: cddbd v1.5.2PL0 Copyright (c) Steve Scherf et al.
# Submitted via: OrangeCD 6.4
#
DISCID=af0a9b0e
DTITLE=Deltahead McDonald - Blues on the Slide
DYEAR=2000
DGENRE=
TTITLE0=Evil On My Mind
TTITLE1=Come On In My Kitchen
TTITLE2=Radiator Blues
TTITLE3=Tom Rushen Blues
TTITLE4=You Gotta Swing
TTITLE5=Mean Old Bedbug Blues
TTITLE6=Grinnin' In Your Face
TTITLE7=Untitled
TTITLE8=Walkin' Blues
TTITLE9=World's Made A Change
TTITLE10=Empire State Express
TTITLE11=Always Lift Him Up
TTITLE12=Fishin' Blues
TTITLE13=Lost Dog Blues
EXTD=
EXTT0=
EXTT1=
EXTT2=
EXTT3=
EXTT4=
EXTT5=
EXTT6=
EXTT7=
EXTT8=
EXTT9=
EXTT10=
EXTT11=
EXTT12=
EXTT13=
PLAYORDER=
